<svg width="32" height="32" fill="none" xmlns="http://www.w3.org/2000/svg"><g clip-path="url('#clip0_0_221')" fill="#292929"><path d="M8 21.333c.736 0 1.333-.597 1.333-1.333v-6.667a1.333 1.333 0 0 0-2.667 0V20c0 .736.597 1.333 1.334 1.333ZM18.666 28c.737 0 1.334-.597 1.334-1.333V5.333a1.333 1.333 0 0 0-2.667 0v21.334c0 .736.597 1.333 1.334 1.333ZM12 22.667a1.333 1.333 0 0 0 2.667 0V9.333a1.333 1.333 0 0 0-2.667 0v13.334ZM22.666 24a1.333 1.333 0 0 0 2.667 0V8a1.333 1.333 0 0 0-2.667 0v16Z"/></g><defs><clipPath id="clip0_0_221"><path fill="#fff" d="M0 0h32v32H0z"/></clipPath></defs></svg>